Coordinates
version=1
nRows=9
nColumns=63
inDegrees=yes

Units are S.I. units (second, meters, Newtons, ...)
If the header above contains a line with 'inDegrees', this indicates whether rotational values are in degrees (yes) or radians (no).

endheader
time	pelvis_tilt	pelvis_list	pelvis_rotation	pelvis_tx	pelvis_ty	pelvis_tz	hip_flexion_r	hip_adduction_r	hip_rotation_r	knee_angle_r	knee_angle_r_beta	ankle_angle_r	subtalar_angle_r	mtp_angle_r	hip_flexion_l	hip_adduction_l	hip_rotation_l	knee_angle_l	knee_angle_l_beta	ankle_angle_l	subtalar_angle_l	mtp_angle_l	L5_S1_Flex_Ext	L5_S1_Lat_Bending	L5_S1_axial_rotation	L4_L5_Flex_Ext	L4_L5_Lat_Bending	L4_L5_axial_rotation	L3_L4_Flex_Ext	L3_L4_Lat_Bending	L3_L4_axial_rotation	L2_L3_Flex_Ext	L2_L3_Lat_Bending	L2_L3_axial_rotation	L1_L2_Flex_Ext	L1_L2_Lat_Bending	L1_L2_axial_rotation	L1_T12_Flex_Ext	L1_T12_Lat_Bending	L1_T12_axial_rotation	Abs_r3	Abs_r2	Abs_r1	Abs_t1	Abs_t2	neck_flexion	neck_bending	neck_rotation	arm_flex_r	arm_add_r	arm_rot_r	elbow_flex_r	pro_sup_r	wrist_flex_r	wrist_dev_r	arm_flex_l	arm_add_l	arm_rot_l	elbow_flex_l	pro_sup_l	wrist_flex_l	wrist_dev_l
      8.56666667	     -0.98080218	      0.35843941	     94.96342814	      0.26342113	      0.72604463	      0.65784939	     -5.28019500	      1.21671930	     12.64382423	      4.03865194	      0.07048777	     22.36449874	    -12.38237164	      0.00000000	     -6.58904682	     -0.89274363	     -6.41991503	      0.24636762	      0.00429993	     26.66587485	      6.67528299	      0.00000000	     -0.26576586	      0.33632606	      1.27061322	     -0.49355378	      0.44731366	      1.35002655	     -0.43662673	      0.81774318	      1.35002655	     -0.30374380	      0.81774318	      1.11178657	     -0.24679018	      0.68583610	      1.03237325	     -0.15185861	      0.52096906	      0.95295992	     -1.89833896	      3.80458763	      7.06676957	      0.00000000	      0.00000000	     22.46026434	    -13.71766705	     -1.74255693	      7.33943826	    -18.14249345	     88.45029168	     16.38533758	     16.12783343	     -5.96845087	    -12.97051223	      6.40409824	     -8.11555267	    166.54644972	      0.61480216	      8.78358110	    -12.57179031	    -10.83505114
      8.58333333	     -1.16860146	      0.33123837	     95.01827634	      0.26301594	      0.72607850	      0.65705673	     -5.41141057	      1.04399672	     13.06811397	      4.07918404	      0.07119519	     21.90831620	    -13.19757846	      0.00000000	     -6.59591299	     -0.67772651	     -6.75559215	      0.24555740	      0.00428579	     27.11316915	      7.40066153	      0.00000000	     -0.26071733	      0.29637594	      1.26270750	     -0.48417814	      0.39418001	      1.34162672	     -0.42833249	      0.72060847	      1.34162672	     -0.29797383	      0.72060847	      1.10486906	     -0.24210211	      0.60436983	      1.02594984	     -0.14897388	      0.45908634	      0.94703062	     -1.86227778	      3.35266396	      7.02280030	      0.00000000	      0.00000000	     22.29797589	    -13.59401204	     -2.45379866	      7.37355289	    -17.88385293	     90.28622159	     16.15496752	     15.84427092	     -6.06712609	    -12.94702853	      6.01633269	     -8.51000631	    166.34999590	      0.58952236	      5.32108239	    -12.55055415	    -12.32215085
      8.60000000	     -1.31152314	      0.38152123	     95.25256008	      0.26216776	      0.72610869	      0.65633147	     -5.61925781	      0.88582808	     12.21120489	      4.11622110	      0.07184161	     21.97706697	    -12.25570811	      0.00000000	     -6.65222274	     -0.51902122	     -6.18773431	      0.24021197	      0.00419249	     27.48213633	      7.20462922	      0.00000000	     -0.26821839	      0.26461651	      1.22648538	     -0.49810838	      0.35193996	      1.30314072	     -0.44065600	      0.64338859	      1.30314072	     -0.30654680	      0.64338859	      1.07317471	     -0.24906760	      0.53960599	      0.99651937	     -0.15325999	      0.40989098	      0.91986404	     -1.91585716	      2.99339491	      6.82134375	      0.00000000	      0.00000000	     21.91995727	    -13.60274183	     -3.43011313	      7.21885136	    -17.83143285	     90.35305365	     16.22618543	     17.22078082	     -6.27198989	    -12.90736731	      5.63125914	     -8.83773742	    163.99015228	      0.60863152	      4.51260042	    -12.92552662	    -14.16434554
      8.61666667	     -1.44186951	      0.37521828	     95.32258602	      0.26158437	      0.72604434	      0.65570104	     -5.76253313	      0.76034921	     12.88459026	      4.06912221	      0.07101958	     21.49995536	    -13.32996643	      0.00000000	     -6.65914556	     -0.35516982	     -6.37212231	      0.23765131	      0.00414780	     27.91128102	      7.78894592	      0.00000000	     -0.26942741	      0.23801701	      1.18934498	     -0.50035364	      0.31656263	      1.26367904	     -0.44264229	      0.57871456	      1.26367904	     -0.30792859	      0.57871456	      1.04067686	     -0.25019029	      0.48536429	      0.96634279	     -0.15395082	      0.36868835	      0.89200873	     -1.92449305	      2.69249604	      6.61477996	      0.00000000	      0.00000000	     21.41294298	    -13.46616431	     -3.83311565	      7.28312387	    -17.67825114	     91.64843950	     16.04797208	     18.21964077	     -6.65341826	    -12.75799594	      5.27840940	     -9.13108341	    161.50174064	      0.61868233	      3.43515153	    -12.16775833	    -15.83073902
      8.63333333	     -1.62115057	      0.30664169	     95.48508553	      0.26123336	      0.72600034	      0.65492715	     -5.82997019	      0.58906134	     12.92279734	      4.02212433	      0.07019931	     21.35132459	    -13.59655026	      0.00000000	     -6.61327044	     -0.17678697	     -7.14613157	      0.23909421	      0.00417298	     28.32731905	      9.27226474	      0.00000000	     -0.26342583	      0.20073036	      1.13822862	     -0.48920811	      0.26697138	      1.20936791	     -0.43278229	      0.48805581	      1.20936791	     -0.30106938	      0.48805581	      0.99595005	     -0.24461722	      0.40932936	      0.92481076	     -0.15052152	      0.31093133	      0.85367147	     -1.88162435	      2.27070202	      6.33048614	      0.00000000	      0.00000000	     20.82222385	    -13.58486024	     -4.62050940	      8.38693242	    -16.18206689	    107.54646898	     13.16363280	      6.87745592	     -5.03513654	    -14.16254075	      4.97437217	     -9.46152811	    159.60355543	      0.66401623	      3.08497277	    -12.15210422	    -17.16256293
      8.65000000	     -1.64967283	      0.25343655	     95.66637154	      0.26045836	      0.72584574	      0.65421523	     -5.91329576	      0.54670758	     12.95469537	      3.89356635	      0.06795555	     21.25487013	    -13.83802719	      0.00000000	     -6.57745509	     -0.13085496	     -7.25049969	      0.23518726	      0.00410479	     28.55036053	      9.75970410	      0.00000000	     -0.26462416	      0.19227412	      1.09338500	     -0.49143353	      0.25572458	      1.16172156	     -0.43475104	      0.46749530	      1.16172156	     -0.30243896	      0.46749530	      0.95671187	     -0.24573000	      0.39208539	      0.88837531	     -0.15120625	      0.29783261	      0.82003875	     -1.89018394	      2.17504332	      6.08107935	      0.00000000	      0.00000000	     20.49983744	    -13.73697486	     -5.04372424	      8.45089392	    -15.70305716	    112.26951636	     12.10110484	      5.52612681	     -5.09488604	    -14.32166103	      4.82552074	     -9.58144898	    158.56250013	      0.71375470	      2.88760011	    -11.71738411	    -17.76486972
      8.66666667	     -1.61018103	      0.19957715	     95.84067435	      0.25972785	      0.72570298	      0.65347340	     -5.96751828	      0.57256819	     12.76331248	      3.78276536	      0.06602171	     21.30450971	    -13.73878350	      0.00000000	     -6.54973208	     -0.16119764	     -7.41890152	      0.23089322	      0.00402985	     28.70529649	     10.24593648	      0.00000000	     -0.26880775	      0.19408955	      1.05866415	     -0.49920288	      0.25813910	      1.12483066	     -0.44162426	      0.47190932	      1.12483066	     -0.30722038	      0.47190932	      0.92633113	     -0.24961488	      0.39578740	      0.86016462	     -0.15359675	      0.30064471	      0.79399811	     -1.92006689	      2.19557977	      5.88797242	      0.00000000	      0.00000000	     20.40150399	    -13.78394252	     -5.27707862	      8.41837761	    -15.23836414	    116.88170552	     10.94546110	      4.59476989	     -5.35715850	    -14.38157949	      4.73025274	     -9.63374873	    158.70160828	      0.74362424	      2.86596072	    -11.45729651	    -17.71266901
      8.68333333	     -1.54712002	      0.12153885	     96.07641325	      0.25891815	      0.72553358	      0.65288774	     -5.99295358	      0.63302323	     12.70053104	      3.65396695	      0.06377375	     21.30500317	    -13.91777465	      0.00000000	     -6.48743548	     -0.22151053	     -7.12661955	      0.22450799	      0.00391840	     28.77447836	     10.16880976	      0.00000000	     -0.27362917	      0.19842589	      1.01650167	     -0.50815673	      0.26390643	      1.08003303	     -0.44954536	      0.48245271	      1.08003303	     -0.31273078	      0.48245271	      0.88943897	     -0.25409205	      0.40463007	      0.82590761	     -0.15635171	      0.30736170	      0.76237626	     -1.95450578	      2.24463335	      5.65347736	      0.00000000	      0.00000000	     20.60016133	    -13.64027436	     -5.30972283	      8.32159997	    -14.80528232	    121.11637108	      9.79224855	      4.05022943	     -5.86586376	    -14.40889392	      4.62646205	     -9.66481476	    159.93524876	      0.75017073	      3.03746173	    -11.69307484	    -17.19469123
      8.70000000	     -1.46129571	      0.08877420	     96.15886935	      0.25810396	      0.72535331	      0.65223616	     -6.02874536	      0.69000170	     12.71038580	      3.60642555	      0.06294400	     21.47033630	    -13.90041032	      0.00000000	     -6.49217550	     -0.27851444	     -7.08117676	      0.21273173	      0.00371287	     28.89093174	     10.19344841	      0.00000000	     -0.28024158	      0.20495350	      1.00094053	     -0.52043663	      0.27258815	      1.06349931	     -0.46040889	      0.49832393	      1.06349931	     -0.32028810	      0.49832393	      0.87582296	     -0.26023233	      0.41794117	      0.81326418	     -0.16013004	      0.31747297	      0.75070540	     -2.00173755	      2.31847496	      5.56693095	      0.00000000	      0.00000000	     20.87484654	    -13.47415104	     -5.40093627	      8.17509259	    -14.82563728	    121.39409650	      9.68204412	      4.26042941	     -5.99827716	    -14.40321984	      4.35505347	     -9.70087754	    160.16039292	      0.75186281	      3.24943789	    -11.70962938	    -17.12004946
